<svg width="611" height="563" viewBox="0 0 611 563" fill="none" xmlns="http://www.w3.org/2000/svg">
<path d="M518.43 173.823C528.737 173.823 537.092 165.469 537.092 155.164C537.092 144.859 528.737 136.506 518.43 136.506C508.124 136.506 499.769 144.859 499.769 155.164C499.769 165.469 508.124 173.823 518.43 173.823Z" fill="#4F5DE4"/>
<path d="M594.234 330.839C583.062 315.459 580.208 295.456 587.415 277.871C590.73 269.78 592.382 260.817 591.922 251.429C590.4 220.103 565.049 194.628 533.73 192.918C533.518 192.906 533.306 192.894 533.093 192.882C519.351 192.269 506.54 185.699 498.129 174.813C497.48 173.976 496.831 173.139 496.171 172.313C484.091 157.158 480.717 137.119 486.486 118.626C488.291 112.823 489.093 106.584 488.656 100.097C486.946 74.6571 466.043 54.3003 440.563 53.2034C425.688 52.5665 412.169 58.3693 402.543 68.0523C385.462 85.26 362.471 95.3441 338.23 95.0728C337.451 95.061 336.661 95.061 335.882 95.061C331.812 95.061 327.825 95.1908 320.653 94.3652C299.266 91.9002 279.496 82.1582 263.783 67.4272C243.505 48.415 216.02 36.9864 185.868 37.6704C128.172 38.9796 79.9489 88.5624 78.2384 146.248C76.9526 189.698 108.85 226.024 117.78 239.163C144.463 278.355 122.215 329.459 92.8894 364.122C74.6995 385.623 63.8823 413.575 64.3659 444.063C65.3922 509.085 118.57 562.076 183.603 562.914C206.807 563.208 228.524 556.969 247.044 545.918C284.45 523.592 326.056 509.085 369.053 502.091C392.658 498.246 414.906 490.379 435.066 479.198C457.762 466.614 484.15 461.837 509.725 466.26C515.139 467.192 520.731 467.628 526.452 467.498C572.682 466.46 610.182 428.436 610.607 382.203C610.796 362.99 604.685 345.24 594.234 330.839Z" fill="#4F5DE4"/>
<path d="M102.547 314.188C121.425 295.313 121.425 264.711 102.547 245.836C83.6682 226.961 53.0605 226.961 34.1822 245.836C15.3039 264.711 15.3039 295.313 34.1822 314.188C53.0605 333.063 83.6682 333.063 102.547 314.188Z" fill="#4F5DE4"/>
<path d="M403.963 42.5948C407.243 39.3155 407.243 33.9985 403.963 30.7191C400.684 27.4398 395.366 27.4397 392.086 30.7191C388.806 33.9985 388.806 39.3155 392.086 42.5948C395.366 45.8742 400.684 45.8742 403.963 42.5948Z" fill="#4F5DE4"/>
<path d="M449.481 39.5801C456.769 32.2936 456.769 20.4798 449.481 13.1933C442.194 5.90683 430.378 5.90684 423.09 13.1933C415.802 20.4798 415.802 32.2936 423.09 39.5801C430.378 46.8666 442.194 46.8666 449.481 39.5801Z" fill="#4F5DE4"/>
<path d="M468.497 508.837C475.97 508.837 482.028 502.78 482.028 495.309C482.028 487.838 475.97 481.781 468.497 481.781C461.025 481.781 454.967 487.838 454.967 495.309C454.967 502.78 461.025 508.837 468.497 508.837Z" fill="#4F5DE4"/>
<path d="M340.719 525.561C342.504 525.561 343.951 524.114 343.951 522.33C343.951 520.545 342.504 519.098 340.719 519.098C338.934 519.098 337.487 520.545 337.487 522.33C337.487 524.114 338.934 525.561 340.719 525.561Z" fill="url(#paint0_linear_187_13357)"/>
<defs>
<linearGradient id="paint0_linear_187_13357" x1="338.939" y1="519.401" x2="342.565" y2="525.052" gradientUnits="userSpaceOnUse">
<stop stop-color="#4F5DE4"/>
<stop offset="1" stop-color="white" stop-opacity="0"/>
</linearGradient>
</defs>
</svg>
