<svg width="1320" height="276" viewBox="0 0 1320 276" fill="none" xmlns="http://www.w3.org/2000/svg">
<path d="M1498.36 -416.023L1489.6 -429.159L766.752 52.6675L775.508 65.8036L1498.36 -416.023Z" fill="#3F4DD3"/>
<path d="M1507.11 -402.881L1498.35 -416.017L775.507 65.8094L784.263 78.9456L1507.11 -402.881Z" fill="#4F5DE4"/>
<path d="M1515.87 -389.748L1507.12 -402.885L784.27 78.942L793.026 92.0782L1515.87 -389.748Z" fill="#3F4DD3"/>
<path d="M1524.63 -376.608L1515.87 -389.744L793.025 92.0828L801.781 105.219L1524.63 -376.608Z" fill="#4F5DE4"/>
<path d="M1533.39 -363.47L1524.63 -376.606L801.786 105.221L810.543 118.357L1533.39 -363.47Z" fill="#3F4DD3"/>
<path d="M1542.14 -350.332L1533.39 -363.468L810.54 118.359L819.296 131.495L1542.14 -350.332Z" fill="#4F5DE4"/>
<path d="M1550.9 -337.191L1542.15 -350.327L819.298 131.499L828.054 144.636L1550.9 -337.191Z" fill="#3F4DD3"/>
<path d="M1559.66 -324.058L1550.9 -337.194L828.056 144.632L836.812 157.768L1559.66 -324.058Z" fill="#4F5DE4"/>
<path d="M1568.42 -310.917L1559.66 -324.053L836.813 157.774L845.569 170.91L1568.42 -310.917Z" fill="#3F4DD3"/>
<path d="M1577.17 -297.775L1568.42 -310.911L845.57 170.915L854.326 184.051L1577.17 -297.775Z" fill="#4F5DE4"/>
<path d="M766.749 52.6819L775.509 65.8174L745.223 503.479L736.462 490.344L766.749 52.6819Z" fill="#3F4DD3"/>
<path d="M775.508 65.8179L784.262 78.9576L753.976 516.619L745.222 503.48L775.508 65.8179Z" fill="#4F5DE4"/>
<path d="M784.263 78.9576L793.023 92.0932L762.737 529.755L753.976 516.619L784.263 78.9576Z" fill="#3F4DD3"/>
<path d="M793.023 92.0934L801.782 105.234L771.496 542.896L762.737 529.755L793.023 92.0934Z" fill="#4F5DE4"/>
<path d="M801.782 105.233L810.536 118.373L780.25 556.035L771.496 542.895L801.782 105.233Z" fill="#3F4DD3"/>
<path d="M810.536 118.373L819.296 131.509L789.01 569.17L780.25 556.035L810.536 118.373Z" fill="#4F5DE4"/>
<path d="M819.296 131.508L828.056 144.649L797.764 582.31L789.01 569.17L819.296 131.508Z" fill="#3F4DD3"/>
<path d="M828.056 144.648L836.81 157.788L806.523 595.45L797.764 582.309L828.056 144.648Z" fill="#4F5DE4"/>
<path d="M836.81 157.79L845.57 170.925L815.284 608.587L806.523 595.451L836.81 157.79Z" fill="#3F4DD3"/>
<path d="M845.57 170.924L854.324 184.064L824.037 621.725L815.284 608.586L845.57 170.924Z" fill="#4F5DE4"/>
<path d="M1358.84 -126.844L1350.73 -139.006L131.415 673.749L139.522 685.91L1358.84 -126.844Z" fill="#3F4DD3"/>
<path d="M1366.95 -114.683L1358.84 -126.845L139.528 685.91L147.634 698.071L1366.95 -114.683Z" fill="#4F5DE4"/>
<path d="M1375.05 -102.522L1366.94 -114.684L147.628 698.07L155.734 710.232L1375.05 -102.522Z" fill="#3F4DD3"/>
<path d="M1383.15 -90.3629L1375.05 -102.525L155.733 710.23L163.839 722.391L1383.15 -90.3629Z" fill="#4F5DE4"/>
<path d="M1391.27 -78.2021L1383.16 -90.3636L163.846 722.391L171.952 734.552L1391.27 -78.2021Z" fill="#3F4DD3"/>
<path d="M1399.37 -66.0408L1391.26 -78.2024L171.945 734.552L180.052 746.714L1399.37 -66.0408Z" fill="#4F5DE4"/>
<path d="M1407.47 -53.8814L1399.36 -66.043L180.05 746.711L188.157 758.873L1407.47 -53.8814Z" fill="#3F4DD3"/>
<path d="M1415.58 -41.7199L1407.48 -53.8816L188.163 758.873L196.27 771.034L1415.58 -41.7199Z" fill="#4F5DE4"/>
<path d="M1423.69 -29.5589L1415.58 -41.7206L196.266 771.034L204.372 783.195L1423.69 -29.5589Z" fill="#3F4DD3"/>
<path d="M1431.79 -17.4015L1423.68 -29.5631L204.365 783.191L212.472 795.353L1431.79 -17.4015Z" fill="#4F5DE4"/>
<path d="M1439.9 -5.24002L1431.79 -17.4016L212.481 795.353L220.588 807.514L1439.9 -5.24002Z" fill="#3F4DD3"/>
<path d="M1448 6.92257L1439.9 -5.23901L220.584 807.515L228.69 819.677L1448 6.92257Z" fill="#4F5DE4"/>
</svg>
