<svg width="328" height="115" viewBox="0 0 328 115" fill="none" xmlns="http://www.w3.org/2000/svg">
<g clip-path="url(#clip0_1103_396)">
<path d="M259.403 63.9849C262.218 65.774 265.06 67.5205 267.901 69.267C261.642 72.0699 255.425 75.2562 249.734 79.124C253.347 74.3361 256.612 69.2925 259.403 63.9849Z" fill="#F1F2FD"/>
<path d="M258.41 62.9969C255.315 68.6027 251.931 73.9359 248.072 79.0221C247.681 69.9829 246.52 60.9267 243.95 52.2453C257.723 48.9482 271.243 44.2795 284.66 39.7386C296.789 35.6322 309.002 31.5003 320.927 26.7549C300.41 38.6481 279.571 50.175 259.538 62.8606C259.259 62.5624 258.673 62.5198 258.41 62.9969Z" fill="#F1F2FD"/>
<path d="M285.025 38.4263C271.353 43.0609 257.427 46.9884 243.797 51.7338C243.729 51.7594 243.696 51.802 243.67 51.8616C243.619 51.8531 243.577 51.8531 243.526 51.8616C238.038 48.4197 232.449 44.9863 226.716 41.9449C243.254 39.2612 259.64 35.4104 276.137 32.4627C291.429 29.7364 306.755 27.2743 322.114 25.0166C309.748 29.4979 297.484 34.2092 285.025 38.4263Z" fill="#F6F6F6"/>
<path d="M323.158 26.7461C308.748 42.0642 295.025 58.0042 282.014 74.5576C281.735 74.9154 281.845 75.2988 282.099 75.5544C281.955 75.7418 281.802 75.9207 281.667 76.1167C274.797 71.4735 267.655 66.9582 260.217 63.3033C281.548 51.819 302.268 39.0227 323.158 26.7461Z" fill="#F6F6F6"/>
<path d="M267.901 69.2585C265.051 67.5205 262.219 65.7655 259.403 63.9764C256.612 69.2926 253.356 74.3276 249.734 79.1156C255.425 75.2477 261.65 72.0614 267.901 69.2585ZM258.411 62.9967C258.665 62.5196 259.25 62.5622 259.547 62.8518C279.58 50.1748 300.419 38.6394 320.935 26.7462C309.01 31.483 296.797 35.6235 284.669 39.7299C271.26 44.2623 257.732 48.9395 243.958 52.2365C246.528 60.9179 247.69 69.9742 248.08 79.0134C251.931 73.9443 255.323 68.6025 258.411 62.9967ZM226.707 41.9535C232.432 44.9949 238.03 48.4283 243.517 51.8702C243.568 51.8617 243.611 51.8617 243.661 51.8702C243.687 51.8106 243.721 51.768 243.789 51.7424C257.418 46.997 271.345 43.0695 285.017 38.4349C297.484 34.2178 309.748 29.498 322.106 25.0337C306.746 27.2914 291.42 29.7535 276.128 32.4798C259.632 35.419 243.246 39.2698 226.707 41.9535ZM323.157 26.7462C302.268 39.0228 281.548 51.8191 260.217 63.2949C267.655 66.9497 274.797 71.4651 281.666 76.1082C281.802 75.9123 281.955 75.7248 282.099 75.5459C281.845 75.2903 281.726 74.907 282.014 74.5491C295.025 58.0042 308.747 42.0642 323.157 26.7462ZM225.393 41.2549C241.668 36.8673 258.563 34.1581 275.144 31.1763C292.429 28.0667 309.774 25.2638 327.144 22.7505C327.754 22.6568 328.28 23.4832 327.822 23.9688C312.276 40.2922 297.501 57.3142 283.566 75.0433C283.473 75.8611 282.998 76.7131 282.277 77.122C282.107 77.5054 281.607 77.778 281.141 77.4884C277.205 74.941 273.202 72.5045 269.207 70.0508C261.896 73.3394 255.018 77.2583 248.072 81.2625C248.055 81.2881 248.029 81.3051 248.012 81.3392C247.673 81.7737 246.825 81.6033 246.8 80.9899C246.511 71.5162 245.137 62.281 243.407 52.9862C243.339 52.9862 243.263 52.9777 243.195 52.9266C237.266 49.5188 231.27 45.9917 225.622 42.1239C225.477 42.1494 225.35 42.1665 225.214 42.1835C224.765 42.2517 224.561 41.5871 224.918 41.3912C224.977 41.2378 225.138 41.1101 225.316 41.2038C225.342 41.2293 225.376 41.2464 225.393 41.2549Z" fill="#2A254D"/>
<path d="M236.885 82.0805C224.79 92.6703 210.126 101.011 195.479 107.477C181.315 113.731 165.209 117.198 150.298 111.388C146.405 109.871 142.852 107.665 139.841 104.955C149.696 102.706 159.06 98.0972 164.92 89.6544C171.782 79.7632 168.856 67.9041 157.77 63.0735C147.593 58.6434 136.338 62.5197 131.631 72.7517C126.763 83.3414 129.714 96.0355 137.67 104.155C128.603 105.918 119.036 105.697 110.037 104.777C97.3152 103.465 83.7874 100.023 73.6013 91.8865C68.5634 87.8568 64.5856 82.5832 62.5755 76.398C59.9887 68.4664 60.8369 59.9894 61.1676 51.8022C61.4814 44.1857 61.3457 36.4756 58.2755 29.3703C55.5869 23.1511 51.1087 17.8093 45.8248 13.6518C32.984 3.54767 16.174 1.04293 0.305329 0.838464C-0.101776 0.829945 -0.101776 1.46039 0.305329 1.47743C18.8202 2.20159 38.9125 5.35381 51.6261 20.3311C58.038 27.8879 60.3958 36.8164 60.2856 46.6138C60.1838 55.2185 58.7335 63.9425 60.2856 72.4961C65.5271 101.394 102.667 107.835 126.839 106.685C130.74 106.497 134.769 106.02 138.747 105.185C138.925 105.347 139.094 105.509 139.273 105.671C152.088 116.857 170.603 116.755 185.946 111.788C195.436 108.713 204.35 104.027 213.01 99.1281C221.576 94.2805 229.743 88.9047 236.995 82.2083C237.097 82.1317 236.969 82.0039 236.885 82.0805ZM130.918 77.0711C134.387 63.7721 148.628 57.8851 160.281 65.3056C165.879 68.8753 169.051 75.1031 167.439 81.7568C165.531 89.6118 158.881 95.5243 152.029 99.1962C147.847 101.428 143.369 102.945 138.755 103.933C131.826 97.0749 128.247 87.3456 130.918 77.0711Z" fill="#2A254D"/>
</g>
<defs>
<clipPath id="clip0_1103_396">
<rect width="328" height="114.161" fill="white" transform="translate(0 0.838379)"/>
</clipPath>
</defs>
</svg>
